<?xml version="1.0" encoding="utf-8"?>
<!-- Generator: Adobe Illustrator 18.1.1, SVG Export Plug-In . SVG Version: 6.00 Build 0)  -->
<svg version="1.1" id="Layer_1" xmlns="http://www.w3.org/2000/svg" xmlns:xlink="http://www.w3.org/1999/xlink" x="0px" y="0px"
	 viewBox="0 0 356.6 267.5" enable-background="new 0 0 356.6 267.5" xml:space="preserve">
<rect x="49.1" y="63.2" fill="#FFFFFF" width="273.5" height="164.9"/>
<polygon fill="#203D72" stroke="#203D72" stroke-miterlimit="10" points="104.7,161.8 144.1,160.8 144.4,126.1 105,127.2 "/>
<g>
	<g>
		<g>
			<g>
				<defs>
					<polygon id="SVGID_1_" points="203.8,184.2 77.4,216.3 44.7,92.1 171.1,59.9 					"/>
				</defs>
				<clipPath id="SVGID_2_">
					<use xlink:href="#SVGID_1_"  overflow="visible"/>
				</clipPath>
				<path clip-path="url(#SVGID_2_)" fill="#203D72" d="M143,172.6c-8.2-2.6-7.9-9.3-7.4-16.3l-22.4,0.3c0.5,7,1.1,13.7-7.1,16.6
					c2.6,6.2,10,10.9,18.5,10.6C133.2,183.7,140.4,179.1,143,172.6"/>
			</g>
			<g>
				<defs>
					<polygon id="SVGID_3_" points="203.8,184.2 77.4,216.3 44.7,92.1 171.1,59.9 					"/>
				</defs>
				<clipPath id="SVGID_4_">
					<use xlink:href="#SVGID_3_"  overflow="visible"/>
				</clipPath>
				<path clip-path="url(#SVGID_4_)" fill="#203D72" d="M143,172.6c-8.2-2.6-7.9-9.3-7.4-16.3h-11.1l0.3,27.2
					C133.2,183.7,140.4,179.1,143,172.6"/>
			</g>
			<g>
				<defs>
					<polygon id="SVGID_5_" points="203.8,184.2 77.4,216.3 44.7,92.1 171.1,59.9 					"/>
				</defs>
				<clipPath id="SVGID_6_">
					<use xlink:href="#SVGID_5_"  overflow="visible"/>
				</clipPath>
				<path clip-path="url(#SVGID_6_)" fill="#2DA9E1" d="M104.8,131.3c1.6,0,2.9,2.9,2.9,6.7c0,3.6-1.3,6.7-2.6,6.7
					c-1.6,0-2.9-2.9-2.9-6.7C102.1,134.5,103.4,131.6,104.8,131.3"/>
			</g>
			<g>
				<defs>
					<polygon id="SVGID_7_" points="203.8,184.2 77.4,216.3 44.7,92.1 171.1,59.9 					"/>
				</defs>
				<clipPath id="SVGID_8_">
					<use xlink:href="#SVGID_7_"  overflow="visible"/>
				</clipPath>
				<path clip-path="url(#SVGID_8_)" fill="#203D72" d="M124.5,162.7c-10.6,0-19.3-8.3-19.5-18.7v-13.7c0-4.9,4-12.4,9-12.4h10.3
					h10.3c5,0,9.2,7.5,9.2,12.4v13.7C143.5,153.9,135.1,162.5,124.5,162.7"/>
			</g>
			<g>
				<defs>
					<polygon id="SVGID_9_" points="203.8,184.2 77.4,216.3 44.7,92.1 171.1,59.9 					"/>
				</defs>
				<clipPath id="SVGID_10_">
					<use xlink:href="#SVGID_9_"  overflow="visible"/>
				</clipPath>
				<path clip-path="url(#SVGID_10_)" fill="#203D72" d="M124.5,162.7c10.6,0,19.3-8.6,19.3-19.2v-13.7c0-4.9-4.2-12.4-9.2-12.4
					h-10.3L124.5,162.7z"/>
			</g>
			<g>
				<defs>
					<polygon id="SVGID_11_" points="203.8,184.2 77.4,216.3 44.7,92.1 171.1,59.9 					"/>
				</defs>
				<clipPath id="SVGID_12_">
					<use xlink:href="#SVGID_11_"  overflow="visible"/>
				</clipPath>
				<path clip-path="url(#SVGID_12_)" fill="#2DA9E1" d="M102.9,142.8c1.1,0,2.1,1,2.1,2.1c0,1-1.1,2.1-2.1,2.1
					c-1.1,0-2.1-1-2.1-2.1C100.8,143.5,101.6,142.8,102.9,142.8"/>
			</g>
			<g>
				<defs>
					<polygon id="SVGID_13_" points="203.8,184.2 77.4,216.3 44.7,92.1 171.1,59.9 					"/>
				</defs>
				<clipPath id="SVGID_14_">
					<use xlink:href="#SVGID_13_"  overflow="visible"/>
				</clipPath>
				<path clip-path="url(#SVGID_14_)" fill="#203D72" d="M124,119.2c-12.1,0-19.3,9.3-19,21l0.3,25.7c-8.7,0-21.9-61.2,18.7-61.7
					V119.2z"/>
			</g>
			<g>
				<defs>
					<polygon id="SVGID_15_" points="203.8,184.2 77.4,216.3 44.7,92.1 171.1,59.9 					"/>
				</defs>
				<clipPath id="SVGID_16_">
					<use xlink:href="#SVGID_15_"  overflow="visible"/>
				</clipPath>
				<path clip-path="url(#SVGID_16_)" fill="#203D72" d="M124.8,191l36.4-0.3V190c0-8.6-6.9-15.3-15.3-16.6
					c-1.1-0.3-2.1-0.3-2.9-0.8c-2.6,6.5-9.8,8.3-18.5,8.3c-8.4,0-15.8-1.6-18.5-8c-0.8,0.3-1.8,0.5-2.9,0.8c-8.4,1.6-15,8.3-15,16.9
					v0.8L124.8,191z"/>
			</g>
			<g>
				<defs>
					<polygon id="SVGID_17_" points="203.8,184.2 77.4,216.3 44.7,92.1 171.1,59.9 					"/>
				</defs>
				<clipPath id="SVGID_18_">
					<use xlink:href="#SVGID_17_"  overflow="visible"/>
				</clipPath>
				<path clip-path="url(#SVGID_18_)" fill="#203D72" d="M124.8,191l36.4-0.3V190c0-8.6-6.9-15.3-15.3-16.6
					c-1.1-0.3-2.1-0.3-2.9-0.8c-2.6,6.5-9.8,8.3-18.5,8.3L124.8,191z"/>
			</g>
			<g>
				<defs>
					<polygon id="SVGID_19_" points="203.7,184.2 77.3,216.3 44.6,92.1 170.9,59.9 					"/>
				</defs>
				<clipPath id="SVGID_20_">
					<use xlink:href="#SVGID_19_"  overflow="visible"/>
				</clipPath>
				<path clip-path="url(#SVGID_20_)" fill="#203D72" d="M123.9,119.2c0.3,16.6,19.3,9.1,19.5,20.5l0.3,25.7
					c8.7,0,20.8-61.7-19.8-61.5V119.2z"/>
			</g>
			<g>
				<defs>
					<polygon id="SVGID_21_" points="203.8,184.2 77.4,216.3 44.7,92.1 171.1,59.9 					"/>
				</defs>
				<clipPath id="SVGID_22_">
					<use xlink:href="#SVGID_21_"  overflow="visible"/>
				</clipPath>
				<path clip-path="url(#SVGID_22_)" fill="#2DA9E1" d="M268.8,376.4H-59V-99.5h327.9c21.4,0,39,17.4,39,38.4V338
					C307.9,359.1,290.2,376.4,268.8,376.4z M-43.5,360.9h312.3c12.9,0,23.5-10.4,23.5-23.1V-61.1c0-12.7-10.6-23.1-23.5-23.1H-43.5
					V360.9z"/>
			</g>
		</g>
		<polygon fill="none" stroke="#203D72" stroke-miterlimit="10" points="70.8,191.5 69.8,85.6 177.4,84.7 178.4,190.5 		"/>
	</g>
	<g>
		<g>
			<defs>
				<rect id="SVGID_23_" x="8.2" y="24.8" width="348.4" height="242.8"/>
			</defs>
			<clipPath id="SVGID_24_">
				<use xlink:href="#SVGID_23_"  overflow="visible"/>
			</clipPath>
			<path clip-path="url(#SVGID_24_)" fill="#203D72" d="M48.3,231.2c-3.2,0-5.8-2.6-5.8-5.7V62.1c0-3.1,2.6-5.7,5.8-5.7h274.8
				c3.2,0,5.8,2.6,5.8,5.7v163.4c0,3.1-2.6,5.7-5.8,5.7H48.3z M322.4,62.9H49.1V225h273.5V62.9H322.4z"/>
		</g>
		<g>
			<defs>
				<rect id="SVGID_25_" x="8.2" y="24.8" width="348.4" height="242.8"/>
			</defs>
			<clipPath id="SVGID_26_">
				<use xlink:href="#SVGID_25_"  overflow="visible"/>
			</clipPath>
			<path clip-path="url(#SVGID_26_)" fill="#203D72" d="M199.2,120.2c-1.6,0-2.9-1.3-2.9-3.1s1.3-3.1,2.9-3.1h93.1
				c1.6,0,2.9,1.6,2.9,3.1c0,1.8-1.3,3.1-2.9,3.1H199.2z"/>
		</g>
		<g>
			<defs>
				<rect id="SVGID_27_" x="8.2" y="24.8" width="348.4" height="242.8"/>
			</defs>
			<clipPath id="SVGID_28_">
				<use xlink:href="#SVGID_27_"  overflow="visible"/>
			</clipPath>
			<path clip-path="url(#SVGID_28_)" fill="#203D72" d="M199.2,139.4c-1.6,0-2.9-1.6-2.9-3.1c0-1.8,1.3-3.1,2.9-3.1h93.1
				c1.6,0,2.9,1.6,2.9,3.1c0,1.8-1.3,3.1-2.9,3.1H199.2z"/>
		</g>
		<g>
			<defs>
				<rect id="SVGID_29_" x="8.2" y="24.8" width="348.4" height="242.8"/>
			</defs>
			<clipPath id="SVGID_30_">
				<use xlink:href="#SVGID_29_"  overflow="visible"/>
			</clipPath>
			<path clip-path="url(#SVGID_30_)" fill="#203D72" d="M199.2,101.3c-1.6,0-2.9-1.6-2.9-3.1c0-1.8,1.3-3.1,2.9-3.1h93.1
				c1.6,0,2.9,1.3,2.9,3.1c0,1.8-1.3,3.1-2.9,3.1H199.2z"/>
		</g>
		<g>
			<defs>
				<rect id="SVGID_31_" x="8.2" y="24.8" width="348.4" height="242.8"/>
			</defs>
			<clipPath id="SVGID_32_">
				<use xlink:href="#SVGID_31_"  overflow="visible"/>
			</clipPath>
			<path clip-path="url(#SVGID_32_)" fill="#203D72" d="M197.6,158.3c-0.8,0-1.3-1.6-1.3-3.1c0-1.8,0.5-3.1,1.3-3.1h44
				c0.8,0,1.3,1.6,1.3,3.1c0,1.8-0.5,3.1-1.3,3.1H197.6z"/>
		</g>
		<g>
			<defs>
				<rect id="SVGID_33_" x="8.2" y="24.8" width="348.4" height="242.8"/>
			</defs>
			<clipPath id="SVGID_34_">
				<use xlink:href="#SVGID_33_"  overflow="visible"/>
			</clipPath>
			<path clip-path="url(#SVGID_34_)" fill="#203D72" d="M265.9,171c-0.8,0-1.3-1.6-1.3-3.1c0-1.8,0.5-3.1,1.3-3.1h44
				c0.8,0,1.3,1.6,1.3,3.1c0,1.8-0.5,3.1-1.3,3.1H265.9z"/>
		</g>
		<g>
			<defs>
				<rect id="SVGID_35_" x="8.2" y="24.8" width="348.4" height="242.8"/>
			</defs>
			<clipPath id="SVGID_36_">
				<use xlink:href="#SVGID_35_"  overflow="visible"/>
			</clipPath>
			<path clip-path="url(#SVGID_36_)" fill="#203D72" d="M265.9,185.3c-0.8,0-1.3-1.6-1.3-3.1c0-1.8,0.5-3.1,1.3-3.1h44
				c0.8,0,1.3,1.6,1.3,3.1c0,1.8-0.5,3.1-1.3,3.1H265.9z"/>
		</g>
		<g>
			<defs>
				<rect id="SVGID_37_" x="8.2" y="24.8" width="348.4" height="242.8"/>
			</defs>
			<clipPath id="SVGID_38_">
				<use xlink:href="#SVGID_37_"  overflow="visible"/>
			</clipPath>
			<path clip-path="url(#SVGID_38_)" fill="#203D72" d="M74.4,213.8c-4,0-7.1-1.6-7.1-3.1c0-1.8,3.2-3.1,7.1-3.1h222.1
				c3.7,0,7.1,1.6,7.1,3.1c0,1.8-3.2,3.1-7.1,3.1H74.4z"/>
		</g>
	</g>
	<rect x="42.4" y="30.7" fill="#203D72" width="286.5" height="31.4"/>
</g>
<polygon fill="#FFFFFF" points="108.5,174.6 123.8,186.4 118.7,191.9 101.5,178.7 "/>
<polygon fill="#FFFFFF" points="139,174.3 123.8,186.4 129,191.8 146,178.3 "/>
</svg>
